<svg xmlns="http://www.w3.org/2000/svg" xmlns:xlink="http://www.w3.org/1999/xlink" viewBox="0 0 486.25 218.28"><defs><style>.a53949f2-2aaa-4cb9-968b-58e2b4fda4f6{isolation:isolate;}.a3048247-52d9-4088-8dda-9175733fa516{fill:#cad400;}.b01eafb5-b427-4d6d-94bc-92435a2afc23{fill:#878686;}.bdec88f6-b410-42bd-bf5b-488cd7217ba6{fill:#eee;}.bdec88f6-b410-42bd-bf5b-488cd7217ba6,.e29f5358-a359-4bd9-951f-9182c93a031f{mix-blend-mode:multiply;}.e29f5358-a359-4bd9-951f-9182c93a031f{fill:url(#a5327134-0921-460a-9e09-a25211bee7a6);}</style><linearGradient id="a5327134-0921-460a-9e09-a25211bee7a6" x1="60.56" y1="167.68" x2="119.27" y2="80.63" gradientUnits="userSpaceOnUse"><stop offset="0" stop-color="#878686"/><stop offset="0.11" stop-color="#a3a2a2"/><stop offset="0.28" stop-color="#c4c3c3"/><stop offset="0.45" stop-color="#dedede"/><stop offset="0.62" stop-color="#f0f0f0"/><stop offset="0.8" stop-color="#fbfbfb"/><stop offset="1" stop-color="#fff"/></linearGradient></defs><g class="a53949f2-2aaa-4cb9-968b-58e2b4fda4f6"><g id="a4774ee4-a513-4416-ba21-8af3aef406c2" data-name="logo tekst"><path class="a3048247-52d9-4088-8dda-9175733fa516" d="M57.53,81.43a29.14,29.14,0,0,1-10.62,6A231.37,231.37,0,0,1,60.11,48.1a113.33,113.33,0,0,1,9.29-17A46.62,46.62,0,0,1,75.21,24a24,24,0,0,1,6.93-4.81,3.74,3.74,0,0,1,1-.24c.15,0,0-.05,0-.07A4.44,4.44,0,0,1,84,21.22a33.63,33.63,0,0,1-.37,9,107.15,107.15,0,0,1-5,18.89C76.39,55.32,74,61.31,70.2,66.59A72.35,72.35,0,0,1,57.53,81.43ZM97.16,98.05C108.22,69,124.81-13.49,67.67,2.28,44.7,8.63,11.19,37.53,3.59,68.55-1.64,89.9,14.44,157,38.92,164.2a32.79,32.79,0,0,1-6.13-8.83,47.23,47.23,0,0,1-3.58-10.78C27.76,137.14,27.9,130,28.35,123a174.12,174.12,0,0,1,6.36-33.94,22.75,22.75,0,0,1-4.33-2.61,28.19,28.19,0,0,1-6.92-7.69.59.59,0,0,1,1-.65l0,0a25.36,25.36,0,0,0,10.87,8.73c.44-1.48.88-3,1.34-4.44A258.28,258.28,0,0,1,51.81,44.14,122.14,122.14,0,0,1,62.58,26.2,54.49,54.49,0,0,1,69.91,18a40.83,40.83,0,0,1,4.43-3.35A22,22,0,0,1,79.81,12a10.49,10.49,0,0,1,3.93-.48,7.4,7.4,0,0,1,4.54,2,9,9,0,0,1,2.18,3.6,14.91,14.91,0,0,1,.68,3.24,39.21,39.21,0,0,1-.79,11.05,112.67,112.67,0,0,1-6,19.89A99.85,99.85,0,0,1,80,60.71c-.81,1.54-1.67,3.07-2.62,4.58s-2,2.9-3,4.27A76.18,76.18,0,0,1,59.93,84.45a35.64,35.64,0,0,1-9.27,5.12,23.46,23.46,0,0,1-4.5,1.09A285.6,285.6,0,0,0,40.54,124a87,87,0,0,0-.09,18.66,42,42,0,0,0,2.13,8.52,23.49,23.49,0,0,0,3.89,7.23,13.66,13.66,0,0,0,6.16,4.29c.29.1.61.16.91.24C74.24,155,87.25,124.07,97.16,98.05Z" transform="translate(-2.6 -0.3)"/><path class="b01eafb5-b427-4d6d-94bc-92435a2afc23" d="M3.48,180.67H6.3V192c0,.95-.08,1.7-.08,1.7H6.3a8.94,8.94,0,0,1,8.31-5.2c5.14,0,7,2.95,7,8.11v13.28H18.76V197.33c0-3.29-.5-6.19-4.53-6.19a7.93,7.93,0,0,0-7.6,5.93,9.82,9.82,0,0,0-.33,2.78v10H3.48Z" transform="translate(-2.6 -0.3)"/><path class="b01eafb5-b427-4d6d-94bc-92435a2afc23" d="M27.82,189h2.82v12.55c0,3.27.5,6.18,4.53,6.18,4.77,0,7.72-4.19,7.72-8.72V189h2.83v20.89H43v-3.11a15.33,15.33,0,0,1,.09-1.66H43a8.91,8.91,0,0,1-8.17,5.27c-4.9,0-7-2.66-7-8.09Z" transform="translate(-2.6 -0.3)"/><path class="b01eafb5-b427-4d6d-94bc-92435a2afc23" d="M52.45,180.67H55.4v3.53H52.45Zm.08,8.3h2.83v20.89H52.53Z" transform="translate(-2.6 -0.3)"/><path class="b01eafb5-b427-4d6d-94bc-92435a2afc23" d="M70.18,188.47A7.37,7.37,0,0,1,77,192.42h.09a13.73,13.73,0,0,1-.09-1.57V180.67h2.83v29.19H77.08v-2.2a12.05,12.05,0,0,1,.08-1.49h-.08a7.57,7.57,0,0,1-7.19,4.19c-5.6,0-9.09-4.49-9.09-11S64.7,188.47,70.18,188.47Zm.13,19.36c3.49,0,6.77-2.5,6.77-8.43,0-4.24-2.16-8.39-6.65-8.39-3.69,0-6.72,3.11-6.72,8.39S66.41,207.83,70.31,207.83Z" transform="translate(-2.6 -0.3)"/><path class="b01eafb5-b427-4d6d-94bc-92435a2afc23" d="M83.77,189h3l5.81,15.33a24.24,24.24,0,0,1,.71,2.49h.08a24.74,24.74,0,0,1,.75-2.49L99.88,189h3l-8,20.89H91.78Z" transform="translate(-2.6 -0.3)"/><path class="b01eafb5-b427-4d6d-94bc-92435a2afc23" d="M115.63,188.47c5.77,0,8.72,4.45,8.72,9.64,0,.5-.09,1.45-.09,1.45h-16c.12,5.36,3.77,8.27,8.09,8.27a9.69,9.69,0,0,0,6.35-2.54l1.29,2.17a12,12,0,0,1-7.72,2.9,10.56,10.56,0,0,1-10.92-10.92C105.33,192.59,110,188.47,115.63,188.47Zm5.85,8.77c-.16-4.36-2.82-6.39-5.94-6.39a7.07,7.07,0,0,0-7.18,6.39Z" transform="translate(-2.6 -0.3)"/><path class="b01eafb5-b427-4d6d-94bc-92435a2afc23" d="M129.75,189h2.78v3.7c0,.91-.08,1.66-.08,1.66h.08c1-3.15,3.33-5.56,6.61-5.56a5.85,5.85,0,0,1,1.12.12v2.78a7.45,7.45,0,0,0-1-.08c-2.95,0-5.15,2.33-6.06,5.4a13.64,13.64,0,0,0-.59,4.07v8.8h-2.82Z" transform="translate(-2.6 -0.3)"/><path class="b01eafb5-b427-4d6d-94bc-92435a2afc23" d="M144.54,180.67h2.82v10.14c0,.95-.08,1.69-.08,1.69h.08a7.57,7.57,0,0,1,7.1-4c5.61,0,9.1,4.49,9.1,11s-3.95,10.92-9.43,10.92a7.62,7.62,0,0,1-6.85-4.07h-.08a16.82,16.82,0,0,1,.08,1.7v1.87h-2.74Zm9.38,27.2c3.7,0,6.73-3.12,6.73-8.43,0-5.11-2.7-8.38-6.6-8.38-3.49,0-6.77,2.48-6.77,8.42C147.28,203.67,149.44,207.87,153.92,207.87Z" transform="translate(-2.6 -0.3)"/><path class="b01eafb5-b427-4d6d-94bc-92435a2afc23" d="M177.85,188.47c5.77,0,8.72,4.45,8.72,9.64,0,.5-.08,1.45-.08,1.45h-16c.12,5.36,3.78,8.27,8.09,8.27a9.73,9.73,0,0,0,6.36-2.54l1.28,2.17a12,12,0,0,1-7.72,2.9,10.56,10.56,0,0,1-10.92-10.92C167.55,192.59,172.2,188.47,177.85,188.47Zm5.85,8.77c-.16-4.36-2.82-6.39-5.93-6.39a7.09,7.09,0,0,0-7.19,6.39Z" transform="translate(-2.6 -0.3)"/><path class="b01eafb5-b427-4d6d-94bc-92435a2afc23" d="M192.77,191.59H190v-2.37h2.79v-6h2.78v6h5.23v2.37h-5.23V202c0,4.9,3.11,5.52,4.69,5.52a5,5,0,0,0,.95-.08v2.53a6.75,6.75,0,0,1-1.2.09c-2.41,0-7.26-.79-7.26-7.76Z" transform="translate(-2.6 -0.3)"/><path class="b01eafb5-b427-4d6d-94bc-92435a2afc23" d="M214.73,188.47c5.78,0,8.72,4.45,8.72,9.64,0,.5-.08,1.45-.08,1.45h-16c.13,5.36,3.78,8.27,8.1,8.27a9.69,9.69,0,0,0,6.35-2.54l1.29,2.17a12,12,0,0,1-7.73,2.9,10.56,10.56,0,0,1-10.91-10.92C204.44,192.59,209.08,188.47,214.73,188.47Zm5.86,8.77c-.17-4.36-2.83-6.39-5.94-6.39a7.07,7.07,0,0,0-7.18,6.39Z" transform="translate(-2.6 -0.3)"/><path class="b01eafb5-b427-4d6d-94bc-92435a2afc23" d="M228.86,189h2.78v3.7c0,.91-.08,1.66-.08,1.66h.08c1-3.15,3.33-5.56,6.6-5.56a5.72,5.72,0,0,1,1.12.12v2.78a7.22,7.22,0,0,0-1-.08c-3,0-5.15,2.33-6.06,5.4a13.64,13.64,0,0,0-.59,4.07v8.8h-2.82Z" transform="translate(-2.6 -0.3)"/><path class="b01eafb5-b427-4d6d-94bc-92435a2afc23" d="M243.56,180.67h2.95v3.53h-2.95Zm.09,8.3h2.82v20.89h-2.82Z" transform="translate(-2.6 -0.3)"/><path class="b01eafb5-b427-4d6d-94bc-92435a2afc23" d="M253.28,189h2.79v3.12a15.57,15.57,0,0,1-.09,1.66h.09a8.88,8.88,0,0,1,8.34-5.28c5.15,0,7,2.95,7,8.11v13.28h-2.82V197.33c0-3.29-.5-6.19-4.53-6.19a7.93,7.93,0,0,0-7.6,5.89,10.29,10.29,0,0,0-.33,2.82v10h-2.83Z" transform="translate(-2.6 -0.3)"/><path class="b01eafb5-b427-4d6d-94bc-92435a2afc23" d="M285.14,216.05c4.07,0,7.31-1.91,7.31-6.57v-1.9a14.78,14.78,0,0,1,.08-1.49h-.08c-1.25,2.32-3.37,3.65-6.6,3.65-5.61,0-9.3-4.45-9.3-10.72s3.44-10.55,9.05-10.55,6.89,3.5,6.89,3.5h.08a5,5,0,0,1,0-.71V189h2.74v20.39c0,6.64-4.9,9.22-10,9.22a15.32,15.32,0,0,1-6.85-1.66l1.08-2.32A12.88,12.88,0,0,0,285.14,216.05Zm7.35-17c0-6.1-2.9-8-6.6-8-4.07,0-6.44,2.94-6.44,7.92s2.7,8.23,6.85,8.23C289.59,207.21,292.49,205.17,292.49,199Z" transform="translate(-2.6 -0.3)"/><path class="b01eafb5-b427-4d6d-94bc-92435a2afc23" d="M312.34,196.58h.71v-.29c0-2.79-1.75-3.74-4.07-3.74a11.34,11.34,0,0,0-5.81,2l-2-3.77a14.28,14.28,0,0,1,8.31-2.62c5.56,0,8.8,3.07,8.8,8.43v13.24h-4.85v-1.74a14.11,14.11,0,0,1,.08-1.5h-.08a6.86,6.86,0,0,1-6.44,3.74c-3.78,0-7.19-2.37-7.19-6.6C299.8,197,308.9,196.58,312.34,196.58Zm-4,9.67c2.78,0,4.77-3,4.77-5.56v-.5h-.91c-2.7,0-7.06.37-7.06,3.32C305.12,204.92,306.16,206.25,308.32,206.25Z" transform="translate(-2.6 -0.3)"/><path class="b01eafb5-b427-4d6d-94bc-92435a2afc23" d="M323.77,188.68h5.07v2.46a12.22,12.22,0,0,1-.09,1.45h.09a8.2,8.2,0,0,1,7.51-4.4c4.7,0,7.35,2.45,7.35,8.05v13.62h-5.23V197.33c0-2.59-.67-4.33-3.37-4.33a5.84,5.84,0,0,0-5.68,4.33,8.85,8.85,0,0,0-.38,2.81v9.72h-5.27Z" transform="translate(-2.6 -0.3)"/><path class="b01eafb5-b427-4d6d-94bc-92435a2afc23" d="M350.15,193.21h-2.74V189h2.86v-6.11h5.15V189h4.82v4.19h-4.82v8.22c0,3.49,2.74,4,4.19,4a4.47,4.47,0,0,0,1-.09v4.61a8.7,8.7,0,0,1-1.62.13c-2.95,0-8.8-.87-8.8-8Z" transform="translate(-2.6 -0.3)"/><rect class="b01eafb5-b427-4d6d-94bc-92435a2afc23" x="362.29" y="180.08" width="5.23" height="4.69"/><rect class="b01eafb5-b427-4d6d-94bc-92435a2afc23" x="371.86" y="195.45" width="5.23" height="4.69"/><rect class="b01eafb5-b427-4d6d-94bc-92435a2afc23" x="362.29" y="188.39" width="5.27" height="21.18"/><path class="b01eafb5-b427-4d6d-94bc-92435a2afc23" d="M395.3,196.58h.7v-.29c0-2.79-1.74-3.74-4.06-3.74a11.35,11.35,0,0,0-5.82,2l-2-3.77a14.26,14.26,0,0,1,8.3-2.62c5.57,0,8.8,3.07,8.8,8.43v13.24h-4.85v-1.74a14.11,14.11,0,0,1,.08-1.5h-.08a6.86,6.86,0,0,1-6.44,3.74c-3.78,0-7.18-2.37-7.18-6.6C382.76,197,391.85,196.58,395.3,196.58Zm-4,9.67c2.78,0,4.78-3,4.78-5.56v-.5h-.92c-2.7,0-7.05.37-7.05,3.32C388.08,204.92,389.11,206.25,391.27,206.25Z" transform="translate(-2.6 -0.3)"/><path class="b01eafb5-b427-4d6d-94bc-92435a2afc23" d="M414.74,214.09c3.24,0,6-1.36,6-5.14V207.7a10.76,10.76,0,0,1,.08-1.12h-.08a6.48,6.48,0,0,1-5.9,2.87c-6.06,0-9.51-4.91-9.51-10.72s3.28-10.54,9.39-10.54c4.61,0,6.27,2.7,6.27,2.7h.12a4.07,4.07,0,0,1,0-.58v-1.63H426v19.89c0,7.27-5.65,10-11.17,10a16.82,16.82,0,0,1-7.51-1.82l1.57-4A14.34,14.34,0,0,0,414.74,214.09Zm6.1-15.32c0-4.81-2.36-6.1-5.23-6.1-3.2,0-5,2.32-5,5.9S412.54,205,416,205C418.48,205,420.84,203.55,420.84,198.77Z" transform="translate(-2.6 -0.3)"/><path class="b01eafb5-b427-4d6d-94bc-92435a2afc23" d="M431.82,180.38h5.23v4.7h-5.23Zm0,8.3h5.27v21.18h-5.27Z" transform="translate(-2.6 -0.3)"/><path class="b01eafb5-b427-4d6d-94bc-92435a2afc23" d="M442.91,188.68H448v2.46a13.72,13.72,0,0,1-.08,1.45H448a8.22,8.22,0,0,1,7.52-4.4c4.69,0,7.35,2.45,7.35,8.05v13.62h-5.23V197.33c0-2.59-.67-4.33-3.37-4.33a5.85,5.85,0,0,0-5.69,4.33,8.85,8.85,0,0,0-.37,2.81v9.72h-5.27Z" transform="translate(-2.6 -0.3)"/><path class="b01eafb5-b427-4d6d-94bc-92435a2afc23" d="M476.38,214.09c3.24,0,6-1.36,6-5.14V207.7a10.76,10.76,0,0,1,.08-1.12h-.08c-1.24,1.87-3.07,2.87-5.9,2.87-6.06,0-9.5-4.91-9.5-10.72s3.28-10.54,9.38-10.54c4.61,0,6.27,2.7,6.27,2.7h.12a4.07,4.07,0,0,1,0-.58v-1.63h4.94v19.89c0,7.27-5.64,10-11.17,10a16.82,16.82,0,0,1-7.51-1.82l1.58-4A14.26,14.26,0,0,0,476.38,214.09Zm6.1-15.32c0-4.81-2.36-6.1-5.23-6.1-3.2,0-5,2.32-5,5.9s1.91,6.43,5.32,6.43C480.12,205,482.48,203.55,482.48,198.77Z" transform="translate(-2.6 -0.3)"/><path class="a3048247-52d9-4088-8dda-9175733fa516" d="M487.72,72.21c-6.28,0-8.28.88-12.18,7.28l-16.45,27.37c-2.63,4.26-5.39,9.92-5.39,9.92h-.25s-2.9-5.66-5.4-9.92L431.59,79.49c-3.89-6.4-5.9-7.28-12.17-7.28H408c-5.15,0-7.28,2.13-7.28,7.28v61.65c0,4.39.63,11,.63,11h-.25s-4.27-7-7.16-11L343.83,72.21h-5v79.35c-1.11-1.81-4.4-7.13-6.77-10.42l-50.1-68.93h-5v80.1a2.46,2.46,0,0,1-2.76,2.76H219a2.46,2.46,0,0,1-2.76-2.76v-34h35v-5h-35v-36h34.65A2.46,2.46,0,0,1,253.68,80v6.15h5.26V79.49c0-5.15-2.12-7.28-7.27-7.28h-49v5h8.16v75.58c0,.08,0,.14,0,.22a2.35,2.35,0,0,1-2.64,2H160.88a2.46,2.46,0,0,1-2.76-2.76V79.49c0-5.15-2.13-7.28-7.28-7.28h-6.28v5H150A2.46,2.46,0,0,1,152.72,80v72.82c0,5.15,2.14,7.29,7.28,7.29h49c.4,0,.74,0,1.1-.06h7c.36,0,.7.06,1.09.06H275c5.15,0,7.29-2.14,7.29-7.29V91.16c0-4.4-.63-11-.63-11h.25s4.27,7,7.15,11l50.1,68.94h5.12l-.18-6.52h0l.08-62.41c0-4.4-.63-11-.63-11h.26s4.26,7,7.15,11l50.1,68.94h5V80a2.46,2.46,0,0,1,2.76-2.76h11.06a6.4,6.4,0,0,1,6.15,3.39l24.87,41.31V160.1h5.39V121.93l24.74-41.31a6.4,6.4,0,0,1,6.15-3.39h1.64v-5Z" transform="translate(-2.6 -0.3)"/><path class="bdec88f6-b410-42bd-bf5b-488cd7217ba6" d="M104.43,72.66h0a179.75,179.75,0,0,1-7.27,25.39c-9.91,26-22.92,57-43.62,64.9C74.36,166.91,122,122.67,122,95,122,75.61,104.43,72.66,104.43,72.66Z" transform="translate(-2.6 -0.3)"/><path class="e29f5358-a359-4bd9-951f-9182c93a031f" d="M104.43,72.66h0a179.75,179.75,0,0,1-7.27,25.39c-9.91,26-22.92,57-43.62,64.9C74.36,166.91,122,122.67,122,95,122,75.61,104.43,72.66,104.43,72.66Z" transform="translate(-2.6 -0.3)"/></g></g></svg>